Roman_wght400.ufo
<glyph name="percent" format="2">
  <advance width="1666"/>
  <unicode hex="0025"/>
  <outline>
    <contour>
      <point x="1370" y="1424" type="line" smooth="yes"/>
      <point x="1382" y="1442"/>
      <point x="1386" y="1448"/>
      <point x="1386" y="1460" type="curve" smooth="yes"/>
      <point x="1386" y="1482"/>
      <point x="1368" y="1500"/>
      <point x="1346" y="1500" type="curve" smooth="yes"/>
      <point x="1326" y="1500"/>
      <point x="1316" y="1486"/>
      <point x="1304" y="1472" type="curve"/>
      <point x="1204" y="1336"/>
      <point x="1070" y="1282"/>
      <point x="924" y="1282" type="curve" smooth="yes"/>
      <point x="784" y="1282"/>
      <point x="660" y="1332"/>
      <point x="550" y="1436" type="curve" smooth="yes"/>
      <point x="512" y="1470"/>
      <point x="470" y="1500"/>
      <point x="406" y="1500" type="curve" smooth="yes"/>
      <point x="254" y="1500"/>
      <point x="112" y="1332"/>
      <point x="112" y="1098" type="curve" smooth="yes"/>
      <point x="112" y="856"/>
      <point x="256" y="694"/>
      <point x="406" y="694" type="curve" smooth="yes"/>
      <point x="552" y="694"/>
      <point x="666" y="872"/>
      <point x="666" y="1096" type="curve" smooth="yes"/>
      <point x="666" y="1124"/>
      <point x="666" y="1218"/>
      <point x="624" y="1322" type="curve"/>
      <point x="754" y="1248"/>
      <point x="854" y="1238"/>
      <point x="926" y="1238" type="curve" smooth="yes"/>
      <point x="1078" y="1238"/>
      <point x="1180" y="1300"/>
      <point x="1192" y="1308" type="curve"/>
      <point x="1194" y="1306" type="line"/>
      <point x="296" y="-32" type="line" smooth="yes"/>
      <point x="278" y="-58"/>
      <point x="278" y="-68"/>
      <point x="278" y="-72" type="curve" smooth="yes"/>
      <point x="278" y="-94"/>
      <point x="298" y="-112"/>
      <point x="318" y="-112" type="curve" smooth="yes"/>
      <point x="338" y="-112"/>
      <point x="342" y="-104"/>
      <point x="358" y="-82" type="curve" smooth="yes"/>
    </contour>
    <contour>
      <point x="408" y="738" type="curve" smooth="yes"/>
      <point x="368" y="738"/>
      <point x="236" y="764"/>
      <point x="236" y="1096" type="curve" smooth="yes"/>
      <point x="236" y="1430"/>
      <point x="366" y="1456"/>
      <point x="408" y="1456" type="curve" smooth="yes"/>
      <point x="514" y="1456"/>
      <point x="616" y="1308"/>
      <point x="616" y="1098" type="curve" smooth="yes"/>
      <point x="616" y="882"/>
      <point x="512" y="738"/>
    </contour>
    <contour>
      <point x="1294" y="-68" type="curve" smooth="yes"/>
      <point x="1254" y="-68"/>
      <point x="1122" y="-42"/>
      <point x="1122" y="290" type="curve" smooth="yes"/>
      <point x="1122" y="624"/>
      <point x="1252" y="650"/>
      <point x="1294" y="650" type="curve" smooth="yes"/>
      <point x="1400" y="650"/>
      <point x="1502" y="502"/>
      <point x="1502" y="292" type="curve" smooth="yes"/>
      <point x="1502" y="76"/>
      <point x="1398" y="-68"/>
    </contour>
    <contour>
      <point x="1552" y="290" type="curve" smooth="yes"/>
      <point x="1552" y="520"/>
      <point x="1434" y="694"/>
      <point x="1292" y="694" type="curve" smooth="yes"/>
      <point x="1140" y="694"/>
      <point x="998" y="526"/>
      <point x="998" y="292" type="curve" smooth="yes"/>
      <point x="998" y="50"/>
      <point x="1142" y="-112"/>
      <point x="1292" y="-112" type="curve" smooth="yes"/>
      <point x="1438" y="-112"/>
      <point x="1552" y="66"/>
    </contour>
  </outline>
</glyph>
<glyph name="parenright" format="2">
  <advance width="776"/>
  <unicode hex="0029"/>
  <outline>
    <contour>
      <point x="134" y="-500" type="curve" smooth="yes"/>
      <point x="154" y="-500"/>
      <point x="334" y="-364"/>
      <point x="452" y="-110" type="curve" smooth="yes"/>
      <point x="554" y="110"/>
      <point x="578" y="332"/>
      <point x="578" y="500" type="curve" smooth="yes"/>
      <point x="578" y="656"/>
      <point x="556" y="898"/>
      <point x="446" y="1124" type="curve" smooth="yes"/>
      <point x="326" y="1370"/>
      <point x="154" y="1500"/>
      <point x="134" y="1500" type="curve" smooth="yes"/>
      <point x="122" y="1500"/>
      <point x="114" y="1492"/>
      <point x="114" y="1480" type="curve" smooth="yes"/>
      <point x="114" y="1474"/>
      <point x="114" y="1470"/>
      <point x="152" y="1434" type="curve" smooth="yes"/>
      <point x="348" y="1236"/>
      <point x="462" y="918"/>
      <point x="462" y="500" type="curve" smooth="yes"/>
      <point x="462" y="158"/>
      <point x="388" y="-194"/>
      <point x="140" y="-446" type="curve" smooth="yes"/>
      <point x="114" y="-470"/>
      <point x="114" y="-474"/>
      <point x="114" y="-480" type="curve" smooth="yes"/>
      <point x="114" y="-492"/>
      <point x="122" y="-500"/>
    </contour>
  </outline>
</glyph>
<glyph name="hyphen" format="2">
  <advance width="666"/>
  <unicode hex="002D"/>
  <outline>
    <contour>
      <point x="552" y="374" type="line"/>
      <point x="552" y="490" type="line"/>
      <point x="22" y="490" type="line"/>
      <point x="22" y="374" type="line"/>
    </contour>
  </outline>
</glyph>
<glyph name="eight" format="2">
  <advance width="1000"/>
  <unicode hex="0038"/>
  <outline>
    <contour>
      <point x="498" y="-44" type="curve" smooth="yes"/>
      <point x="724" y="-44"/>
      <point x="914" y="122"/>
      <point x="914" y="336" type="curve" smooth="yes"/>
      <point x="914" y="444"/>
      <point x="876" y="584"/>
      <point x="618" y="724" type="curve"/>
      <point x="762" y="798"/>
      <point x="860" y="902"/>
      <point x="860" y="1034" type="curve" smooth="yes"/>
      <point x="860" y="1218"/>
      <point x="682" y="1332"/>
      <point x="500" y="1332" type="curve" smooth="yes"/>
      <point x="300" y="1332"/>
      <point x="138" y="1184"/>
      <point x="138" y="998" type="curve" smooth="yes"/>
      <point x="138" y="962"/>
      <point x="142" y="872"/>
      <point x="226" y="778" type="curve" smooth="yes"/>
      <point x="248" y="754"/>
      <point x="322" y="704"/>
      <point x="372" y="670" type="curve"/>
      <point x="256" y="612"/>
      <point x="84" y="500"/>
      <point x="84" y="302" type="curve" smooth="yes"/>
      <point x="84" y="90"/>
      <point x="288" y="-44"/>
    </contour>
    <contour>
      <point x="500" y="12" type="curve" smooth="yes"/>
      <point x="328" y="12"/>
      <point x="184" y="136"/>
      <point x="184" y="302" type="curve" smooth="yes"/>
      <point x="184" y="418"/>
      <point x="248" y="546"/>
      <point x="418" y="640" type="curve"/>
      <point x="664" y="484" type="line" smooth="yes"/>
      <point x="720" y="446"/>
      <point x="814" y="386"/>
      <point x="814" y="264" type="curve" smooth="yes"/>
      <point x="814" y="116"/>
      <point x="664" y="12"/>
    </contour>
    <contour>
      <point x="574" y="754" type="curve"/>
      <point x="326" y="914" type="line" smooth="yes"/>
      <point x="234" y="974"/>
      <point x="226" y="1042"/>
      <point x="226" y="1076" type="curve" smooth="yes"/>
      <point x="226" y="1198"/>
      <point x="356" y="1282"/>
      <point x="498" y="1282" type="curve" smooth="yes"/>
      <point x="644" y="1282"/>
      <point x="772" y="1178"/>
      <point x="772" y="1034" type="curve" smooth="yes"/>
      <point x="772" y="920"/>
      <point x="694" y="824"/>
    </contour>
  </outline>
</glyph>
<glyph name="C" format="2">
  <advance width="1444"/>
  <unicode hex="0043"/>
  <outline>
    <contour>
      <point x="112" y="684" type="curve" smooth="yes"/>
      <point x="112" y="270"/>
      <point x="436" y="-44"/>
      <point x="808" y="-44" type="curve" smooth="yes"/>
      <point x="1134" y="-44"/>
      <point x="1330" y="234"/>
      <point x="1330" y="466" type="curve" smooth="yes"/>
      <point x="1330" y="486"/>
      <point x="1330" y="500"/>
      <point x="1304" y="500" type="curve" smooth="yes"/>
      <point x="1282" y="500"/>
      <point x="1282" y="488"/>
      <point x="1280" y="468" type="curve" smooth="yes"/>
      <point x="1264" y="182"/>
      <point x="1050" y="18"/>
      <point x="832" y="18" type="curve" smooth="yes"/>
      <point x="710" y="18"/>
      <point x="318" y="86"/>
      <point x="318" y="682" type="curve" smooth="yes"/>
      <point x="318" y="1280"/>
      <point x="708" y="1348"/>
      <point x="830" y="1348" type="curve" smooth="yes"/>
      <point x="1048" y="1348"/>
      <point x="1226" y="1166"/>
      <point x="1266" y="874" type="curve" smooth="yes"/>
      <point x="1270" y="846"/>
      <point x="1270" y="840"/>
      <point x="1298" y="840" type="curve" smooth="yes"/>
      <point x="1330" y="840"/>
      <point x="1330" y="846"/>
      <point x="1330" y="888" type="curve" smooth="yes"/>
      <point x="1330" y="1362" type="line" smooth="yes"/>
      <point x="1330" y="1396"/>
      <point x="1330" y="1410"/>
      <point x="1308" y="1410" type="curve" smooth="yes"/>
      <point x="1300" y="1410"/>
      <point x="1292" y="1410"/>
      <point x="1276" y="1386" type="curve" smooth="yes"/>
      <point x="1176" y="1238" type="line"/>
      <point x="1102" y="1310"/>
      <point x="1000" y="1410"/>
      <point x="808" y="1410" type="curve" smooth="yes"/>
      <point x="434" y="1410"/>
      <point x="112" y="1092"/>
    </contour>
  </outline>
</glyph>
<glyph name="E" format="2">
  <advance width="1360"/>
  <unicode hex="0045"/>
  <outline>
    <contour>
      <point x="272" y="156" type="line" smooth="yes"/>
      <point x="272" y="84"/>
      <point x="268" y="62"/>
      <point x="114" y="62" type="curve" smooth="yes"/>
      <point x="66" y="62" type="line"/>
      <point x="66" y="0" type="line"/>
      <point x="1220" y="0" type="line"/>
      <point x="1304" y="516" type="line"/>
      <point x="1254" y="516" type="line"/>
      <point x="1204" y="208"/>
      <point x="1158" y="62"/>
      <point x="814" y="62" type="curve" smooth="yes"/>
      <point x="548" y="62" type="line" smooth="yes"/>
      <point x="454" y="62"/>
      <point x="450" y="76"/>
      <point x="450" y="142" type="curve" smooth="yes"/>
      <point x="450" y="676" type="line"/>
      <point x="630" y="676" type="line" smooth="yes"/>
      <point x="824" y="676"/>
      <point x="846" y="612"/>
      <point x="846" y="442" type="curve"/>
      <point x="896" y="442" type="line"/>
      <point x="896" y="972" type="line"/>
      <point x="846" y="972" type="line"/>
      <point x="846" y="800"/>
      <point x="824" y="738"/>
      <point x="630" y="738" type="curve" smooth="yes"/>
      <point x="450" y="738" type="line"/>
      <point x="450" y="1218" type="line" smooth="yes"/>
      <point x="450" y="1284"/>
      <point x="454" y="1298"/>
      <point x="548" y="1298" type="curve" smooth="yes"/>
      <point x="806" y="1298" type="line" smooth="yes"/>
      <point x="1112" y="1298"/>
      <point x="1166" y="1188"/>
      <point x="1198" y="910" type="curve"/>
      <point x="1248" y="910" type="line"/>
      <point x="1192" y="1360" type="line"/>
      <point x="66" y="1360" type="line"/>
      <point x="66" y="1298" type="line"/>
      <point x="114" y="1298" type="line" smooth="yes"/>
      <point x="268" y="1298"/>
      <point x="272" y="1276"/>
      <point x="272" y="1204" type="curve" smooth="yes"/>
    </contour>
  </outline>
</glyph>
<glyph name="H" format="2">
  <advance width="1500"/>
  <unicode hex="0048"/>
  <outline>
    <contour>
      <point x="450" y="1218" type="line" smooth="yes"/>
      <point x="450" y="1242"/>
      <point x="458" y="1275"/>
      <point x="473" y="1285" type="qcurve" smooth="yes"/>
      <point x="493" y="1298"/>
      <point x="568" y="1304"/>
      <point x="600" y="1304" type="qcurve" smooth="yes"/>
      <point x="656" y="1304" type="line"/>
      <point x="656" y="1366" type="line"/>
      <point x="599" y="1362"/>
      <point x="421" y="1360"/>
      <point x="362" y="1360" type="qcurve" smooth="yes"/>
      <point x="304" y="1360"/>
      <point x="127" y="1362"/>
      <point x="66" y="1366" type="qcurve"/>
      <point x="66" y="1304" type="line"/>
      <point x="114" y="1304" type="line" smooth="yes"/>
      <point x="152" y="1304"/>
      <point x="230" y="1298"/>
      <point x="252" y="1283" type="qcurve" smooth="yes"/>
      <point x="266" y="1273"/>
      <point x="272" y="1237"/>
      <point x="272" y="1216" type="qcurve" smooth="yes"/>
      <point x="272" y="142" type="line" smooth="yes"/>
      <point x="272" y="123"/>
      <point x="263" y="88"/>
      <point x="244" y="78" type="qcurve" smooth="yes"/>
      <point x="225" y="68"/>
      <point x="158" y="62"/>
      <point x="114" y="62" type="qcurve" smooth="yes"/>
      <point x="66" y="62" type="line"/>
      <point x="66" y="0" type="line"/>
      <point x="133" y="4"/>
      <point x="302" y="6"/>
      <point x="360" y="6" type="qcurve" smooth="yes"/>
      <point x="419" y="6"/>
      <point x="599" y="4"/>
      <point x="656" y="0" type="qcurve"/>
      <point x="656" y="62" type="line"/>
      <point x="598" y="62" type="line" smooth="yes"/>
      <point x="573" y="62"/>
      <point x="502" y="67"/>
      <point x="480" y="77" type="qcurve" smooth="yes"/>
      <point x="463" y="85"/>
      <point x="450" y="116"/>
      <point x="450" y="146" type="qcurve" smooth="yes"/>
    </contour>
    <contour>
      <point x="1137" y="742" type="line"/>
      <point x="361" y="742" type="line"/>
      <point x="361" y="680" type="line"/>
      <point x="1137" y="680" type="line"/>
    </contour>
    <contour>
      <point x="1048" y="147" type="line" smooth="yes"/>
      <point x="1048" y="117"/>
      <point x="1036" y="85"/>
      <point x="1018" y="77" type="qcurve" smooth="yes"/>
      <point x="998" y="68"/>
      <point x="935" y="62"/>
      <point x="890" y="62" type="qcurve" smooth="yes"/>
      <point x="842" y="62" type="line"/>
      <point x="842" y="0" type="line"/>
      <point x="910" y="4"/>
      <point x="1078" y="6"/>
      <point x="1136" y="6" type="qcurve" smooth="yes"/>
      <point x="1195" y="6"/>
      <point x="1356" y="4"/>
      <point x="1432" y="0" type="qcurve"/>
      <point x="1432" y="62" type="line"/>
      <point x="1384" y="62" type="line" smooth="yes"/>
      <point x="1330" y="62"/>
      <point x="1266" y="70"/>
      <point x="1249" y="81" type="qcurve" smooth="yes"/>
      <point x="1234" y="91"/>
      <point x="1226" y="125"/>
      <point x="1226" y="142" type="qcurve" smooth="yes"/>
      <point x="1226" y="1219" type="line" smooth="yes"/>
      <point x="1226" y="1247"/>
      <point x="1236" y="1277"/>
      <point x="1250" y="1286" type="qcurve" smooth="yes"/>
      <point x="1266" y="1296"/>
      <point x="1330" y="1304"/>
      <point x="1384" y="1304" type="qcurve" smooth="yes"/>
      <point x="1432" y="1304" type="line"/>
      <point x="1432" y="1366" type="line"/>
      <point x="1368" y="1362"/>
      <point x="1197" y="1360"/>
      <point x="1138" y="1360" type="qcurve" smooth="yes"/>
      <point x="1080" y="1360"/>
      <point x="893" y="1362"/>
      <point x="842" y="1366" type="qcurve"/>
      <point x="842" y="1304" type="line"/>
      <point x="890" y="1304" type="line" smooth="yes"/>
      <point x="932" y="1304"/>
      <point x="1004" y="1298"/>
      <point x="1022" y="1287" type="qcurve" smooth="yes"/>
      <point x="1040" y="1276"/>
      <point x="1048" y="1241"/>
      <point x="1048" y="1223" type="qcurve" smooth="yes"/>
    </contour>
  </outline>
</glyph>
<glyph name="O" format="2">
  <advance width="1554"/>
  <unicode hex="004F"/>
  <outline>
    <contour>
      <point x="1442" y="678" type="curve" smooth="yes"/>
      <point x="1442" y="1086"/>
      <point x="1140" y="1410"/>
      <point x="776" y="1410" type="curve" smooth="yes"/>
      <point x="418" y="1410"/>
      <point x="112" y="1090"/>
      <point x="112" y="678" type="curve" smooth="yes"/>
      <point x="112" y="268"/>
      <point x="420" y="-44"/>
      <point x="776" y="-44" type="curve" smooth="yes"/>
      <point x="1140" y="-44"/>
      <point x="1442" y="274"/>
    </contour>
    <contour>
      <point x="778" y="8" type="curve" smooth="yes"/>
      <point x="586" y="8"/>
      <point x="318" y="184"/>
      <point x="318" y="706" type="curve" smooth="yes"/>
      <point x="318" y="1224"/>
      <point x="610" y="1360"/>
      <point x="776" y="1360" type="curve" smooth="yes"/>
      <point x="950" y="1360"/>
      <point x="1236" y="1218"/>
      <point x="1236" y="706" type="curve" smooth="yes"/>
      <point x="1236" y="176"/>
      <point x="962" y="8"/>
    </contour>
  </outline>
</glyph>
<glyph name="Y" format="2">
  <advance width="1500"/>
  <unicode hex="0059"/>
  <outline>
    <contour>
      <point x="456" y="0" type="line"/>
      <point x="528" y="6"/>
      <point x="670" y="6"/>
      <point x="748" y="6" type="curve" smooth="yes"/>
      <point x="826" y="6"/>
      <point x="968" y="6"/>
      <point x="1040" y="0" type="curve"/>
      <point x="1040" y="62" type="line"/>
      <point x="994" y="62" type="line" smooth="yes"/>
      <point x="840" y="62"/>
      <point x="834" y="82"/>
      <point x="834" y="160" type="curve" smooth="yes"/>
      <point x="834" y="546" type="line"/>
      <point x="1220" y="1174" type="line" smooth="yes"/>
      <point x="1294" y="1296"/>
      <point x="1412" y="1304"/>
      <point x="1476" y="1304" type="curve"/>
      <point x="1476" y="1366" type="line"/>
      <point x="1414" y="1362"/>
      <point x="1334" y="1360"/>
      <point x="1280" y="1360" type="curve" smooth="yes"/>
      <point x="1218" y="1360"/>
      <point x="1102" y="1364"/>
      <point x="1050" y="1366" type="curve"/>
      <point x="1050" y="1304" type="line"/>
      <point x="1132" y="1304"/>
      <point x="1164" y="1266"/>
      <point x="1164" y="1226" type="curve" smooth="yes"/>
      <point x="1164" y="1204"/>
      <point x="1152" y="1178"/>
      <point x="1144" y="1166" type="curve" smooth="yes"/>
      <point x="814" y="630" type="line"/>
      <point x="452" y="1220" type="line" smooth="yes"/>
      <point x="440" y="1240"/>
      <point x="438" y="1244"/>
      <point x="438" y="1254" type="curve" smooth="yes"/>
      <point x="438" y="1296"/>
      <point x="488" y="1304"/>
      <point x="578" y="1304" type="curve"/>
      <point x="578" y="1366" type="line"/>
      <point x="506" y="1360"/>
      <point x="360" y="1360"/>
      <point x="282" y="1360" type="curve" smooth="yes"/>
      <point x="198" y="1360"/>
      <point x="106" y="1362"/>
      <point x="22" y="1366" type="curve"/>
      <point x="22" y="1304" type="line"/>
      <point x="58" y="1304" type="line" smooth="yes"/>
      <point x="194" y="1304"/>
      <point x="210" y="1282"/>
      <point x="242" y="1230" type="curve" smooth="yes"/>
      <point x="662" y="546" type="line"/>
      <point x="662" y="156" type="line" smooth="yes"/>
      <point x="662" y="84"/>
      <point x="658" y="62"/>
      <point x="504" y="62" type="curve" smooth="yes"/>
      <point x="456" y="62" type="line"/>
    </contour>
  </outline>
</glyph>
<glyph name="grave" format="2">
  <advance width="1000"/>
  <unicode hex="0060"/>
  <outline>
    <contour>
      <point x="550" y="1020" type="line"/>
      <point x="586" y="1054" type="line"/>
      <point x="346" y="1362" type="line" smooth="yes"/>
      <point x="340" y="1370"/>
      <point x="318" y="1396"/>
      <point x="286" y="1396" type="curve" smooth="yes"/>
      <point x="250" y="1396"/>
      <point x="214" y="1360"/>
      <point x="214" y="1324" type="curve" smooth="yes"/>
      <point x="214" y="1300"/>
      <point x="228" y="1280"/>
      <point x="248" y="1264" type="curve" smooth="yes"/>
    </contour>
  </outline>
</glyph>
<glyph name="a" format="2">
  <advance width="1000"/>
  <unicode hex="0061"/>
  <outline>
    <contour>
      <point x="722" y="525" type="line"/>
      <point x="568" y="521"/>
      <point x="361" y="488"/>
      <point x="269" y="443" type="qcurve" smooth="yes"/>
      <point x="174" y="397"/>
      <point x="84" y="264"/>
      <point x="84" y="190" type="qcurve" smooth="yes"/>
      <point x="84" y="130"/>
      <point x="149" y="48"/>
      <point x="187" y="28" type="qcurve" smooth="yes"/>
      <point x="237" y="2"/>
      <point x="352" y="-22"/>
      <point x="404" y="-22" type="qcurve" smooth="yes"/>
      <point x="452" y="-22"/>
      <point x="538" y="6"/>
      <point x="572" y="31" type="qcurve" smooth="yes"/>
      <point x="608" y="57"/>
      <point x="661" y="131"/>
      <point x="677" y="182" type="qcurve"/>
      <point x="663" y="182" type="line"/>
      <point x="669" y="120"/>
      <point x="695" y="58"/>
      <point x="716" y="35" type="qcurve" smooth="yes"/>
      <point x="736" y="13"/>
      <point x="789" y="-12"/>
      <point x="822" y="-12" type="qcurve" smooth="yes"/>
      <point x="848" y="-12"/>
      <point x="902" y="8"/>
      <point x="923" y="25" type="qcurve" smooth="yes"/>
      <point x="955" y="51"/>
      <point x="986" y="127"/>
      <point x="986" y="178" type="qcurve" smooth="yes"/>
      <point x="986" y="290" type="line"/>
      <point x="936" y="290" type="line"/>
      <point x="936" y="178" type="line" smooth="yes"/>
      <point x="936" y="136"/>
      <point x="921" y="85"/>
      <point x="909" y="71" type="qcurve" smooth="yes"/>
      <point x="899" y="60"/>
      <point x="876" y="50"/>
      <point x="864" y="50" type="qcurve" smooth="yes"/>
      <point x="849" y="50"/>
      <point x="825" y="62"/>
      <point x="815" y="74" type="qcurve" smooth="yes"/>
      <point x="804" y="88"/>
      <point x="790" y="133"/>
      <point x="790" y="150" type="qcurve" smooth="yes"/>
      <point x="790" y="573" type="line" smooth="yes"/>
      <point x="790" y="641"/>
      <point x="761" y="743"/>
      <point x="718" y="786" type="qcurve" smooth="yes"/>
      <point x="662" y="842"/>
      <point x="520" y="896"/>
      <point x="444" y="896" type="qcurve" smooth="yes"/>
      <point x="381" y="896"/>
      <point x="267" y="860"/>
      <point x="226" y="828" type="qcurve" smooth="yes"/>
      <point x="187" y="798"/>
      <point x="142" y="717"/>
      <point x="142" y="670" type="qcurve" smooth="yes"/>
      <point x="142" y="626"/>
      <point x="196" y="576"/>
      <point x="234" y="576" type="qcurve" smooth="yes"/>
      <point x="276" y="576"/>
      <point x="326" y="630"/>
      <point x="326" y="668" type="qcurve" smooth="yes"/>
      <point x="326" y="684"/>
      <point x="315" y="717"/>
      <point x="302" y="731" type="qcurve" smooth="yes"/>
      <point x="290" y="744"/>
      <point x="252" y="759"/>
      <point x="224" y="760" type="qcurve"/>
      <point x="246" y="787"/>
      <point x="291" y="817"/>
      <point x="318" y="828" type="qcurve" smooth="yes"/>
      <point x="347" y="840"/>
      <point x="411" y="852"/>
      <point x="440" y="852" type="qcurve" smooth="yes"/>
      <point x="483" y="852"/>
      <point x="561" y="816"/>
      <point x="591" y="782" type="qcurve" smooth="yes"/>
      <point x="621" y="748"/>
      <point x="652" y="651"/>
      <point x="652" y="596" type="qcurve" smooth="yes"/>
      <point x="652" y="280" type="line" smooth="yes"/>
      <point x="652" y="212"/>
      <point x="605" y="108"/>
      <point x="563" y="75" type="qcurve" smooth="yes"/>
      <point x="524" y="45"/>
      <point x="450" y="22"/>
      <point x="418" y="22" type="qcurve" smooth="yes"/>
      <point x="382" y="22"/>
      <point x="317" y="46"/>
      <point x="293" y="68" type="qcurve" smooth="yes"/>
      <point x="268" y="90"/>
      <point x="238" y="154"/>
      <point x="238" y="192" type="qcurve" smooth="yes"/>
      <point x="238" y="244"/>
      <point x="289" y="351"/>
      <point x="353" y="398" type="qcurve" smooth="yes"/>
      <point x="401" y="433"/>
      <point x="562" y="479"/>
      <point x="722" y="484" type="qcurve"/>
    </contour>
  </outline>
</glyph>
<glyph name="c" format="2">
  <advance width="888"/>
  <unicode hex="0063"/>
  <outline>
    <contour>
      <point x="234" y="436" type="curve" smooth="yes"/>
      <point x="234" y="762"/>
      <point x="398" y="846"/>
      <point x="504" y="846" type="curve" smooth="yes"/>
      <point x="522" y="846"/>
      <point x="648" y="844"/>
      <point x="718" y="772" type="curve"/>
      <point x="636" y="766"/>
      <point x="624" y="706"/>
      <point x="624" y="680" type="curve" smooth="yes"/>
      <point x="624" y="628"/>
      <point x="660" y="588"/>
      <point x="716" y="588" type="curve" smooth="yes"/>
      <point x="768" y="588"/>
      <point x="808" y="622"/>
      <point x="808" y="682" type="curve" smooth="yes"/>
      <point x="808" y="818"/>
      <point x="656" y="896"/>
      <point x="502" y="896" type="curve" smooth="yes"/>
      <point x="252" y="896"/>
      <point x="68" y="680"/>
      <point x="68" y="432" type="curve" smooth="yes"/>
      <point x="68" y="176"/>
      <point x="266" y="-22"/>
      <point x="498" y="-22" type="curve" smooth="yes"/>
      <point x="766" y="-22"/>
      <point x="830" y="218"/>
      <point x="830" y="238" type="curve" smooth="yes"/>
      <point x="830" y="258"/>
      <point x="810" y="258"/>
      <point x="804" y="258" type="curve" smooth="yes"/>
      <point x="786" y="258"/>
      <point x="782" y="250"/>
      <point x="778" y="238" type="curve" smooth="yes"/>
      <point x="720" y="52"/>
      <point x="590" y="28"/>
      <point x="516" y="28" type="curve" smooth="yes"/>
      <point x="410" y="28"/>
      <point x="234" y="114"/>
    </contour>
  </outline>
</glyph>
<glyph name="k" format="2">
  <advance width="1054"/>
  <unicode hex="006B"/>
  <outline>
    <contour>
      <point x="56" y="0" type="line"/>
      <point x="122" y="2"/>
      <point x="216" y="6"/>
      <point x="274" y="6" type="curve" smooth="yes"/>
      <point x="334" y="6"/>
      <point x="414" y="4"/>
      <point x="494" y="0" type="curve"/>
      <point x="494" y="62" type="line"/>
      <point x="494" y="62" type="line"/>
      <point x="360" y="62"/>
      <point x="338" y="62"/>
      <point x="338" y="152" type="curve" smooth="yes"/>
      <point x="338" y="358" type="line"/>
      <point x="466" y="468" type="line"/>
      <point x="466" y="468" type="line"/>
      <point x="620" y="256"/>
      <point x="704" y="144"/>
      <point x="704" y="108" type="curve" smooth="yes"/>
      <point x="704" y="70"/>
      <point x="670" y="62"/>
      <point x="632" y="62" type="curve"/>
      <point x="632" y="0" type="line"/>
      <point x="688" y="2"/>
      <point x="806" y="6"/>
      <point x="848" y="6" type="curve" smooth="yes"/>
      <point x="906" y="6"/>
      <point x="964" y="4"/>
      <point x="1022" y="0" type="curve"/>
      <point x="1022" y="62" type="line"/>
      <point x="948" y="62"/>
      <point x="904" y="62"/>
      <point x="828" y="168" type="curve" smooth="yes"/>
      <point x="558" y="548" type="line"/>
      <point x="720" y="688" type="line" smooth="yes"/>
      <point x="844" y="794"/>
      <point x="934" y="798"/>
      <point x="976" y="800" type="curve"/>
      <point x="976" y="862" type="line"/>
      <point x="918" y="856"/>
      <point x="892" y="856"/>
      <point x="836" y="856" type="curve" smooth="yes"/>
      <point x="764" y="856"/>
      <point x="640" y="860"/>
      <point x="612" y="862" type="curve"/>
      <point x="612" y="800" type="line"/>
      <point x="650" y="798"/>
      <point x="670" y="776"/>
      <point x="670" y="750" type="curve" smooth="yes"/>
      <point x="670" y="710"/>
      <point x="642" y="686"/>
      <point x="626" y="672" type="curve" smooth="yes"/>
      <point x="344" y="428" type="line"/>
      <point x="344" y="1388" type="line"/>
      <point x="56" y="1366" type="line"/>
      <point x="56" y="1304" type="line"/>
      <point x="196" y="1304"/>
      <point x="212" y="1290"/>
      <point x="212" y="1192" type="curve" smooth="yes"/>
      <point x="212" y="152" type="line" smooth="yes"/>
      <point x="212" y="62"/>
      <point x="190" y="62"/>
      <point x="56" y="62" type="curve"/>
      <point x="56" y="62" type="line"/>
    </contour>
  </outline>
</glyph>
<glyph name="l" format="2">
  <advance width="554"/>
  <unicode hex="006C"/>
  <outline>
    <contour>
      <point x="354" y="1388" type="line"/>
      <point x="66" y="1366" type="line"/>
      <point x="66" y="1304" type="line"/>
      <point x="206" y="1304"/>
      <point x="222" y="1290"/>
      <point x="222" y="1192" type="curve" smooth="yes"/>
      <point x="222" y="152" type="line" smooth="yes"/>
      <point x="222" y="62"/>
      <point x="200" y="62"/>
      <point x="66" y="62" type="curve"/>
      <point x="66" y="62" type="line"/>
      <point x="66" y="0" type="line"/>
      <point x="132" y="2"/>
      <point x="238" y="6"/>
      <point x="288" y="6" type="curve" smooth="yes"/>
      <point x="338" y="6"/>
      <point x="436" y="2"/>
      <point x="510" y="0" type="curve"/>
      <point x="510" y="62" type="line"/>
      <point x="510" y="62" type="line"/>
      <point x="376" y="62"/>
      <point x="354" y="62"/>
      <point x="354" y="152" type="curve" smooth="yes"/>
    </contour>
  </outline>
</glyph>
<glyph name="n" format="2">
  <advance width="1110"/>
  <unicode hex="006E"/>
  <outline>
    <contour>
      <point x="327" y="624" type="qcurve"/>
      <point x="346" y="624" type="line"/>
      <point x="346" y="884" type="line"/>
      <point x="64" y="862" type="line"/>
      <point x="64" y="800" type="line"/>
      <point x="75" y="800" type="line" smooth="yes"/>
      <point x="125" y="800"/>
      <point x="182" y="791"/>
      <point x="197" y="779" type="qcurve" smooth="yes"/>
      <point x="211" y="767"/>
      <point x="220" y="724"/>
      <point x="220" y="688" type="qcurve" smooth="yes"/>
      <point x="220" y="152" type="line" smooth="yes"/>
      <point x="220" y="120"/>
      <point x="211" y="87"/>
      <point x="200" y="78" type="qcurve" smooth="yes"/>
      <point x="183" y="65"/>
      <point x="108" y="62"/>
      <point x="84" y="62" type="qcurve" smooth="yes"/>
      <point x="64" y="62" type="line"/>
      <point x="64" y="0" type="line"/>
      <point x="99" y="1"/>
      <point x="243" y="6"/>
      <point x="290" y="6" type="qcurve" smooth="yes"/>
      <point x="336" y="6"/>
      <point x="480" y="1"/>
      <point x="514" y="0" type="qcurve"/>
      <point x="514" y="62" type="line"/>
      <point x="499" y="62" type="line" smooth="yes"/>
      <point x="465" y="62"/>
      <point x="399" y="65"/>
      <point x="381" y="76" type="qcurve" smooth="yes"/>
      <point x="368" y="84"/>
      <point x="358" y="119"/>
      <point x="358" y="152" type="qcurve" smooth="yes"/>
      <point x="358" y="520" type="line" smooth="yes"/>
      <point x="358" y="597"/>
      <point x="408" y="723"/>
      <point x="453" y="766" type="qcurve" smooth="yes"/>
      <point x="488" y="800"/>
      <point x="580" y="840"/>
      <point x="628" y="840" type="qcurve" smooth="yes"/>
      <point x="660" y="840"/>
      <point x="711" y="821"/>
      <point x="730" y="800" type="qcurve" smooth="yes"/>
      <point x="753" y="775"/>
      <point x="776" y="686"/>
      <point x="776" y="618" type="qcurve" smooth="yes"/>
      <point x="776" y="152" type="line" smooth="yes"/>
      <point x="776" y="125"/>
      <point x="768" y="87"/>
      <point x="756" y="78" type="qcurve" smooth="yes"/>
      <point x="741" y="67"/>
      <point x="685" y="62"/>
      <point x="652" y="62" type="qcurve" smooth="yes"/>
      <point x="620" y="62" type="line"/>
      <point x="620" y="0" type="line"/>
      <point x="655" y="1"/>
      <point x="809" y="6"/>
      <point x="846" y="6" type="qcurve" smooth="yes"/>
      <point x="882" y="6"/>
      <point x="1036" y="1"/>
      <point x="1070" y="0" type="qcurve"/>
      <point x="1070" y="62" type="line"/>
      <point x="1032" y="62" type="line" smooth="yes"/>
      <point x="1011" y="62"/>
      <point x="952" y="67"/>
      <point x="935" y="78" type="qcurve" smooth="yes"/>
      <point x="924" y="85"/>
      <point x="914" y="108"/>
      <point x="914" y="122" type="qcurve" smooth="yes"/>
      <point x="914" y="574" type="line" smooth="yes"/>
      <point x="914" y="688"/>
      <point x="880" y="779"/>
      <point x="852" y="810" type="qcurve" smooth="yes"/>
      <point x="821" y="845"/>
      <point x="717" y="884"/>
      <point x="642" y="884" type="qcurve" smooth="yes"/>
      <point x="579" y="884"/>
      <point x="473" y="841"/>
      <point x="431" y="800" type="qcurve" smooth="yes"/>
      <point x="398" y="768"/>
      <point x="346" y="681"/>
    </contour>
  </outline>
</glyph>
<glyph name="q" format="2">
  <advance width="1054"/>
  <unicode hex="0071"/>
  <outline>
    <contour>
      <point x="760" y="-236" type="line" smooth="yes"/>
      <point x="760" y="-326"/>
      <point x="738" y="-326"/>
      <point x="604" y="-326" type="curve"/>
      <point x="604" y="-326" type="line"/>
      <point x="604" y="-388" type="line"/>
      <point x="672" y="-386"/>
      <point x="776" y="-382"/>
      <point x="828" y="-382" type="curve" smooth="yes"/>
      <point x="882" y="-382"/>
      <point x="984" y="-386"/>
      <point x="1054" y="-388" type="curve"/>
      <point x="1054" y="-326" type="line"/>
      <point x="1054" y="-326" type="line"/>
      <point x="920" y="-326"/>
      <point x="898" y="-326"/>
      <point x="898" y="-236" type="curve" smooth="yes"/>
      <point x="898" y="884" type="line"/>
      <point x="854" y="884" type="line"/>
      <point x="778" y="702" type="line"/>
      <point x="752" y="758"/>
      <point x="670" y="884"/>
      <point x="510" y="884" type="curve" smooth="yes"/>
      <point x="278" y="884"/>
      <point x="68" y="690"/>
      <point x="68" y="430" type="curve" smooth="yes"/>
      <point x="68" y="180"/>
      <point x="262" y="-22"/>
      <point x="494" y="-22" type="curve" smooth="yes"/>
      <point x="634" y="-22"/>
      <point x="716" y="64"/>
      <point x="760" y="122" type="curve"/>
    </contour>
    <contour>
      <point x="234" y="430" type="curve" smooth="yes"/>
      <point x="234" y="668"/>
      <point x="374" y="834"/>
      <point x="522" y="834" type="curve" smooth="yes"/>
      <point x="682" y="834"/>
      <point x="766" y="660"/>
      <point x="766" y="554" type="curve" smooth="yes"/>
      <point x="766" y="272" type="line" smooth="yes"/>
      <point x="766" y="208"/>
      <point x="730" y="152"/>
      <point x="686" y="104" type="curve" smooth="yes"/>
      <point x="660" y="76"/>
      <point x="596" y="22"/>
      <point x="502" y="22" type="curve" smooth="yes"/>
      <point x="356" y="22"/>
      <point x="234" y="200"/>
    </contour>
  </outline>
</glyph>
<glyph name="oslash" format="2">
  <advance width="1000"/>
  <unicode hex="00F8"/>
  <outline>
    <contour>
      <point x="158" y="-204" type="line"/>
      <point x="294" y="32" type="line"/>
      <point x="340" y="6"/>
      <point x="414" y="-22"/>
      <point x="498" y="-22" type="curve" smooth="yes"/>
      <point x="736" y="-22"/>
      <point x="928" y="178"/>
      <point x="928" y="426" type="curve" smooth="yes"/>
      <point x="928" y="622"/>
      <point x="820" y="756"/>
      <point x="744" y="812" type="curve"/>
      <point x="878" y="1044" type="line"/>
      <point x="840" y="1068" type="line"/>
      <point x="708" y="836" type="line"/>
      <point x="662" y="866"/>
      <point x="586" y="896"/>
      <point x="500" y="896" type="curve" smooth="yes"/>
      <point x="262" y="896"/>
      <point x="70" y="684"/>
      <point x="70" y="426" type="curve" smooth="yes"/>
      <point x="70" y="266"/>
      <point x="150" y="132"/>
      <point x="258" y="56" type="curve"/>
      <point x="120" y="-180" type="line"/>
    </contour>
    <contour>
      <point x="500" y="22" type="curve" smooth="yes"/>
      <point x="450" y="22"/>
      <point x="382" y="36"/>
      <point x="326" y="84" type="curve"/>
      <point x="708" y="748" type="line"/>
      <point x="786" y="656"/>
      <point x="790" y="510"/>
      <point x="790" y="428" type="curve" smooth="yes"/>
      <point x="790" y="362"/>
      <point x="790" y="242"/>
      <point x="732" y="150" type="curve" smooth="yes"/>
      <point x="674" y="58"/>
      <point x="578" y="22"/>
    </contour>
    <contour>
      <point x="292" y="118" type="line"/>
      <point x="218" y="202"/>
      <point x="208" y="316"/>
      <point x="208" y="428" type="curve" smooth="yes"/>
      <point x="208" y="512"/>
      <point x="212" y="624"/>
      <point x="266" y="714" type="curve" smooth="yes"/>
      <point x="326" y="818"/>
      <point x="426" y="852"/>
      <point x="498" y="852" type="curve" smooth="yes"/>
      <point x="578" y="852"/>
      <point x="640" y="816"/>
      <point x="676" y="784" type="curve"/>
    </contour>
  </outline>
</glyph>
<glyph name="breve" format="2">
  <advance width="1000"/>
  <unicode hex="02D8"/>
  <outline>
    <contour>
      <point x="754" y="1388" type="line"/>
      <point x="750" y="1214"/>
      <point x="618" y="1120"/>
      <point x="500" y="1120" type="curve" smooth="yes"/>
      <point x="374" y="1120"/>
      <point x="248" y="1218"/>
      <point x="244" y="1388" type="curve"/>
      <point x="200" y="1388" type="line"/>
      <point x="204" y="1172"/>
      <point x="350" y="1044"/>
      <point x="498" y="1044" type="curve" smooth="yes"/>
      <point x="654" y="1044"/>
      <point x="794" y="1178"/>
      <point x="798" y="1388" type="curve"/>
    </contour>
  </outline>
</glyph>
<glyph name="dotaccent" format="2">
  <advance width="554"/>
  <unicode hex="02D9"/>
  <outline>
    <contour>
      <point x="384" y="1232" type="curve" smooth="yes"/>
      <point x="384" y="1286"/>
      <point x="338" y="1338"/>
      <point x="278" y="1338" type="curve" smooth="yes"/>
      <point x="210" y="1338"/>
      <point x="170" y="1282"/>
      <point x="170" y="1232" type="curve" smooth="yes"/>
      <point x="170" y="1178"/>
      <point x="216" y="1126"/>
      <point x="276" y="1126" type="curve" smooth="yes"/>
      <point x="344" y="1126"/>
      <point x="384" y="1182"/>
    </contour>
  </outline>
</glyph>
<glyph name="quoteleft" format="2">
  <advance width="554"/>
  <unicode hex="2018"/>
  <outline>
    <contour>
      <point x="278" y="788" type="curve" smooth="yes"/>
      <point x="348" y="788"/>
      <point x="384" y="842"/>
      <point x="384" y="894" type="curve" smooth="yes"/>
      <point x="384" y="946"/>
      <point x="350" y="1000"/>
      <point x="278" y="1000" type="curve" smooth="yes"/>
      <point x="218" y="1000"/>
      <point x="194" y="962"/>
      <point x="192" y="962" type="curve" smooth="yes"/>
      <point x="188" y="962"/>
      <point x="164" y="1170"/>
      <point x="328" y="1330" type="curve" smooth="yes"/>
      <point x="352" y="1354"/>
      <point x="352" y="1358"/>
      <point x="352" y="1364" type="curve" smooth="yes"/>
      <point x="352" y="1378"/>
      <point x="342" y="1386"/>
      <point x="332" y="1386" type="curve" smooth="yes"/>
      <point x="310" y="1386"/>
      <point x="144" y="1234"/>
      <point x="144" y="998" type="curve" smooth="yes"/>
      <point x="144" y="878"/>
      <point x="192" y="788"/>
    </contour>
  </outline>
</glyph>
<glyph name="quotedblleft" format="2">
  <advance width="1000"/>
  <unicode hex="201C"/>
  <outline>
    <contour>
      <point x="438" y="788" type="curve" smooth="yes"/>
      <point x="508" y="788"/>
      <point x="544" y="842"/>
      <point x="544" y="894" type="curve" smooth="yes"/>
      <point x="544" y="946"/>
      <point x="510" y="1000"/>
      <point x="438" y="1000" type="curve" smooth="yes"/>
      <point x="378" y="1000"/>
      <point x="354" y="962"/>
      <point x="352" y="962" type="curve" smooth="yes"/>
      <point x="348" y="962"/>
      <point x="324" y="1170"/>
      <point x="488" y="1330" type="curve" smooth="yes"/>
      <point x="512" y="1354"/>
      <point x="512" y="1358"/>
      <point x="512" y="1364" type="curve" smooth="yes"/>
      <point x="512" y="1378"/>
      <point x="502" y="1386"/>
      <point x="492" y="1386" type="curve" smooth="yes"/>
      <point x="470" y="1386"/>
      <point x="304" y="1234"/>
      <point x="304" y="998" type="curve" smooth="yes"/>
      <point x="304" y="878"/>
      <point x="352" y="788"/>
    </contour>
    <contour>
      <point x="826" y="788" type="curve" smooth="yes"/>
      <point x="896" y="788"/>
      <point x="932" y="842"/>
      <point x="932" y="894" type="curve" smooth="yes"/>
      <point x="932" y="946"/>
      <point x="898" y="1000"/>
      <point x="826" y="1000" type="curve" smooth="yes"/>
      <point x="766" y="1000"/>
      <point x="742" y="962"/>
      <point x="740" y="962" type="curve" smooth="yes"/>
      <point x="736" y="962"/>
      <point x="712" y="1170"/>
      <point x="876" y="1330" type="curve" smooth="yes"/>
      <point x="900" y="1354"/>
      <point x="900" y="1358"/>
      <point x="900" y="1364" type="curve" smooth="yes"/>
      <point x="900" y="1378"/>
      <point x="890" y="1386"/>
      <point x="880" y="1386" type="curve" smooth="yes"/>
      <point x="858" y="1386"/>
      <point x="692" y="1234"/>
      <point x="692" y="998" type="curve" smooth="yes"/>
      <point x="692" y="878"/>
      <point x="740" y="788"/>
    </contour>
  </outline>
</glyph>
<glyph name="ffi" format="2">
  <advance width="1666"/>
  <outline>
    <contour>
      <point x="1452" y="886" type="line"/>
      <point x="1426" y="884"/>
      <point x="1400" y="882"/>
      <point x="1374" y="880" type="curve" smooth="yes"/>
      <point x="1276" y="872"/>
      <point x="1260" y="872"/>
      <point x="1164" y="864" type="curve"/>
      <point x="1160" y="862"/>
      <point x="1156" y="862"/>
      <point x="1128" y="862" type="curve" smooth="yes"/>
      <point x="892" y="862" type="line"/>
      <point x="892" y="1088" type="line" smooth="yes"/>
      <point x="892" y="1286"/>
      <point x="1064" y="1366"/>
      <point x="1188" y="1366" type="curve" smooth="yes"/>
      <point x="1248" y="1366"/>
      <point x="1320" y="1346"/>
      <point x="1360" y="1300" type="curve"/>
      <point x="1278" y="1296"/>
      <point x="1266" y="1240"/>
      <point x="1266" y="1208" type="curve" smooth="yes"/>
      <point x="1266" y="1142"/>
      <point x="1318" y="1116"/>
      <point x="1356" y="1116" type="curve" smooth="yes"/>
      <point x="1402" y="1116"/>
      <point x="1448" y="1148"/>
      <point x="1448" y="1208" type="curve" smooth="yes"/>
      <point x="1448" y="1326"/>
      <point x="1338" y="1410"/>
      <point x="1190" y="1410" type="curve" smooth="yes"/>
      <point x="1014" y="1410"/>
      <point x="900" y="1330"/>
      <point x="864" y="1300" type="curve"/>
      <point x="818" y="1370"/>
      <point x="734" y="1410"/>
      <point x="634" y="1410" type="curve" smooth="yes"/>
      <point x="446" y="1410"/>
      <point x="212" y="1308"/>
      <point x="212" y="1090" type="curve" smooth="yes"/>
      <point x="212" y="862" type="line"/>
      <point x="54" y="862" type="line"/>
      <point x="54" y="800" type="line"/>
      <point x="212" y="800" type="line"/>
      <point x="212" y="152" type="line" smooth="yes"/>
      <point x="212" y="62"/>
      <point x="190" y="62"/>
      <point x="56" y="62" type="curve"/>
      <point x="56" y="0" type="line"/>
      <point x="122" y="2"/>
      <point x="228" y="6"/>
      <point x="278" y="6" type="curve" smooth="yes"/>
      <point x="328" y="6"/>
      <point x="426" y="2"/>
      <point x="500" y="0" type="curve"/>
      <point x="500" y="62" type="line"/>
      <point x="366" y="62"/>
      <point x="344" y="62"/>
      <point x="344" y="152" type="curve" smooth="yes"/>
      <point x="344" y="800" type="line"/>
      <point x="766" y="800" type="line"/>
      <point x="766" y="152" type="line" smooth="yes"/>
      <point x="766" y="62"/>
      <point x="744" y="62"/>
      <point x="610" y="62" type="curve"/>
      <point x="610" y="0" type="line"/>
      <point x="676" y="2"/>
      <point x="782" y="6"/>
      <point x="832" y="6" type="curve" smooth="yes"/>
      <point x="882" y="6"/>
      <point x="980" y="2"/>
      <point x="1054" y="0" type="curve"/>
      <point x="1054" y="62" type="line"/>
      <point x="920" y="62"/>
      <point x="898" y="62"/>
      <point x="898" y="152" type="curve" smooth="yes"/>
      <point x="898" y="800" type="line"/>
      <point x="1214" y="800" type="line" smooth="yes"/>
      <point x="1306" y="800"/>
      <point x="1320" y="774"/>
      <point x="1320" y="692" type="curve" smooth="yes"/>
      <point x="1320" y="152" type="line" smooth="yes"/>
      <point x="1320" y="62"/>
      <point x="1298" y="62"/>
      <point x="1164" y="62" type="curve"/>
      <point x="1164" y="0" type="line"/>
      <point x="1230" y="2"/>
      <point x="1336" y="6"/>
      <point x="1386" y="6" type="curve" smooth="yes"/>
      <point x="1436" y="6"/>
      <point x="1534" y="2"/>
      <point x="1608" y="0" type="curve"/>
      <point x="1608" y="62" type="line"/>
      <point x="1474" y="62"/>
      <point x="1452" y="62"/>
      <point x="1452" y="152" type="curve" smooth="yes"/>
    </contour>
    <contour>
      <point x="338" y="862" type="line"/>
      <point x="338" y="1088" type="line" smooth="yes"/>
      <point x="338" y="1288"/>
      <point x="512" y="1366"/>
      <point x="630" y="1366" type="curve" smooth="yes"/>
      <point x="678" y="1366"/>
      <point x="748" y="1356"/>
      <point x="802" y="1300" type="curve"/>
      <point x="724" y="1296"/>
      <point x="706" y="1248"/>
      <point x="706" y="1208" type="curve" smooth="yes"/>
      <point x="706" y="1164"/>
      <point x="730" y="1132"/>
      <point x="766" y="1122" type="curve" smooth="yes"/>
      <point x="766" y="1122"/>
      <point x="766" y="1122"/>
      <point x="766" y="1122" type="curve"/>
      <point x="766" y="862" type="line"/>
    </contour>
  </outline>
</glyph>
<glyph name="ffl" format="2">
  <advance width="1666"/>
  <outline>
    <contour>
      <point x="1320" y="800" type="line"/>
      <point x="1320" y="152" type="line" smooth="yes"/>
      <point x="1320" y="62"/>
      <point x="1298" y="62"/>
      <point x="1164" y="62" type="curve"/>
      <point x="1164" y="0" type="line"/>
      <point x="1230" y="2"/>
      <point x="1336" y="6"/>
      <point x="1386" y="6" type="curve" smooth="yes"/>
      <point x="1436" y="6"/>
      <point x="1534" y="2"/>
      <point x="1608" y="0" type="curve"/>
      <point x="1608" y="62" type="line"/>
      <point x="1474" y="62"/>
      <point x="1452" y="62"/>
      <point x="1452" y="152" type="curve" smooth="yes"/>
      <point x="1452" y="1388" type="line"/>
      <point x="1380" y="1376" type="line"/>
      <point x="1372" y="1376"/>
      <point x="1370" y="1378"/>
      <point x="1362" y="1382" type="curve"/>
      <point x="1298" y="1410"/>
      <point x="1216" y="1410"/>
      <point x="1194" y="1410" type="curve" smooth="yes"/>
      <point x="1054" y="1410"/>
      <point x="946" y="1366"/>
      <point x="872" y="1306" type="curve"/>
      <point x="830" y="1388"/>
      <point x="718" y="1410"/>
      <point x="636" y="1410" type="curve" smooth="yes"/>
      <point x="440" y="1410"/>
      <point x="212" y="1304"/>
      <point x="212" y="1090" type="curve" smooth="yes"/>
      <point x="212" y="862" type="line"/>
      <point x="54" y="862" type="line"/>
      <point x="54" y="800" type="line"/>
      <point x="212" y="800" type="line"/>
      <point x="212" y="152" type="line" smooth="yes"/>
      <point x="212" y="62"/>
      <point x="190" y="62"/>
      <point x="56" y="62" type="curve"/>
      <point x="56" y="0" type="line"/>
      <point x="122" y="2"/>
      <point x="228" y="6"/>
      <point x="278" y="6" type="curve" smooth="yes"/>
      <point x="328" y="6"/>
      <point x="426" y="2"/>
      <point x="500" y="0" type="curve"/>
      <point x="500" y="62" type="line"/>
      <point x="366" y="62"/>
      <point x="344" y="62"/>
      <point x="344" y="152" type="curve" smooth="yes"/>
      <point x="344" y="800" type="line"/>
      <point x="766" y="800" type="line"/>
      <point x="766" y="152" type="line" smooth="yes"/>
      <point x="766" y="62"/>
      <point x="744" y="62"/>
      <point x="610" y="62" type="curve"/>
      <point x="610" y="0" type="line"/>
      <point x="676" y="2"/>
      <point x="782" y="6"/>
      <point x="832" y="6" type="curve" smooth="yes"/>
      <point x="882" y="6"/>
      <point x="980" y="2"/>
      <point x="1054" y="0" type="curve"/>
      <point x="1054" y="62" type="line"/>
      <point x="920" y="62"/>
      <point x="898" y="62"/>
      <point x="898" y="152" type="curve" smooth="yes"/>
      <point x="898" y="800" type="line"/>
    </contour>
    <contour>
      <point x="766" y="862" type="line"/>
      <point x="338" y="862" type="line"/>
      <point x="338" y="1088" type="line" smooth="yes"/>
      <point x="338" y="1282"/>
      <point x="500" y="1366"/>
      <point x="634" y="1366" type="curve" smooth="yes"/>
      <point x="668" y="1366"/>
      <point x="736" y="1360"/>
      <point x="788" y="1328" type="curve"/>
      <point x="768" y="1324"/>
      <point x="716" y="1306"/>
      <point x="716" y="1240" type="curve" smooth="yes"/>
      <point x="716" y="1210"/>
      <point x="728" y="1176"/>
      <point x="772" y="1160" type="curve"/>
      <point x="766" y="1138"/>
      <point x="766" y="1112"/>
      <point x="766" y="1090" type="curve" smooth="yes"/>
    </contour>
    <contour>
      <point x="1320" y="862" type="line"/>
      <point x="892" y="862" type="line"/>
      <point x="892" y="1088" type="line" smooth="yes"/>
      <point x="892" y="1274"/>
      <point x="1044" y="1366"/>
      <point x="1192" y="1366" type="curve" smooth="yes"/>
      <point x="1210" y="1366"/>
      <point x="1264" y="1366"/>
      <point x="1320" y="1348" type="curve"/>
      <point x="1302" y="1340"/>
      <point x="1270" y="1320"/>
      <point x="1270" y="1268" type="curve" smooth="yes"/>
      <point x="1270" y="1232"/>
      <point x="1286" y="1202"/>
      <point x="1320" y="1190" type="curve"/>
    </contour>
  </outline>
</glyph>
<glyph name="fi" format="2">
  <advance width="1110"/>
  <outline>
    <contour>
      <point x="660" y="800" type="line" smooth="yes"/>
      <point x="752" y="800"/>
      <point x="766" y="774"/>
      <point x="766" y="692" type="curve" smooth="yes"/>
      <point x="766" y="152" type="line" smooth="yes"/>
      <point x="766" y="62"/>
      <point x="744" y="62"/>
      <point x="610" y="62" type="curve"/>
      <point x="610" y="0" type="line"/>
      <point x="676" y="2"/>
      <point x="782" y="6"/>
      <point x="832" y="6" type="curve" smooth="yes"/>
      <point x="882" y="6"/>
      <point x="980" y="2"/>
      <point x="1054" y="0" type="curve"/>
      <point x="1054" y="62" type="line"/>
      <point x="920" y="62"/>
      <point x="898" y="62"/>
      <point x="898" y="152" type="curve" smooth="yes"/>
      <point x="898" y="886" type="line"/>
      <point x="646" y="868" type="line" smooth="yes"/>
      <point x="614" y="866"/>
      <point x="612" y="864"/>
      <point x="610" y="864" type="curve"/>
      <point x="606" y="862"/>
      <point x="602" y="862"/>
      <point x="574" y="862" type="curve" smooth="yes"/>
      <point x="338" y="862" type="line"/>
      <point x="338" y="1088" type="line" smooth="yes"/>
      <point x="338" y="1286"/>
      <point x="510" y="1366"/>
      <point x="634" y="1366" type="curve" smooth="yes"/>
      <point x="694" y="1366"/>
      <point x="766" y="1346"/>
      <point x="806" y="1300" type="curve"/>
      <point x="724" y="1296"/>
      <point x="712" y="1240"/>
      <point x="712" y="1208" type="curve" smooth="yes"/>
      <point x="712" y="1142"/>
      <point x="764" y="1116"/>
      <point x="802" y="1116" type="curve" smooth="yes"/>
      <point x="848" y="1116"/>
      <point x="894" y="1148"/>
      <point x="894" y="1208" type="curve" smooth="yes"/>
      <point x="894" y="1326"/>
      <point x="784" y="1410"/>
      <point x="636" y="1410" type="curve" smooth="yes"/>
      <point x="450" y="1410"/>
      <point x="212" y="1308"/>
      <point x="212" y="1090" type="curve" smooth="yes"/>
      <point x="212" y="862" type="line"/>
      <point x="54" y="862" type="line"/>
      <point x="54" y="800" type="line"/>
      <point x="212" y="800" type="line"/>
      <point x="212" y="152" type="line" smooth="yes"/>
      <point x="212" y="62"/>
      <point x="190" y="62"/>
      <point x="56" y="62" type="curve"/>
      <point x="56" y="0" type="line"/>
      <point x="122" y="2"/>
      <point x="228" y="6"/>
      <point x="278" y="6" type="curve" smooth="yes"/>
      <point x="328" y="6"/>
      <point x="426" y="2"/>
      <point x="500" y="0" type="curve"/>
      <point x="500" y="62" type="line"/>
      <point x="366" y="62"/>
      <point x="344" y="62"/>
      <point x="344" y="152" type="curve" smooth="yes"/>
      <point x="344" y="800" type="line"/>
    </contour>
  </outline>
</glyph>
<glyph name="fl" format="2">
  <advance width="1110"/>
  <outline>
    <contour>
      <point x="766" y="800" type="line"/>
      <point x="766" y="152" type="line" smooth="yes"/>
      <point x="766" y="62"/>
      <point x="744" y="62"/>
      <point x="610" y="62" type="curve"/>
      <point x="610" y="0" type="line"/>
      <point x="676" y="2"/>
      <point x="782" y="6"/>
      <point x="832" y="6" type="curve" smooth="yes"/>
      <point x="882" y="6"/>
      <point x="980" y="2"/>
      <point x="1054" y="0" type="curve"/>
      <point x="1054" y="62" type="line"/>
      <point x="920" y="62"/>
      <point x="898" y="62"/>
      <point x="898" y="152" type="curve" smooth="yes"/>
      <point x="898" y="1388" type="line"/>
      <point x="826" y="1376" type="line"/>
      <point x="818" y="1376"/>
      <point x="816" y="1378"/>
      <point x="808" y="1382" type="curve"/>
      <point x="744" y="1410"/>
      <point x="662" y="1410"/>
      <point x="640" y="1410" type="curve" smooth="yes"/>
      <point x="430" y="1410"/>
      <point x="212" y="1298"/>
      <point x="212" y="1090" type="curve" smooth="yes"/>
      <point x="212" y="862" type="line"/>
      <point x="54" y="862" type="line"/>
      <point x="54" y="800" type="line"/>
      <point x="212" y="800" type="line"/>
      <point x="212" y="152" type="line" smooth="yes"/>
      <point x="212" y="62"/>
      <point x="190" y="62"/>
      <point x="56" y="62" type="curve"/>
      <point x="56" y="0" type="line"/>
      <point x="122" y="2"/>
      <point x="228" y="6"/>
      <point x="278" y="6" type="curve" smooth="yes"/>
      <point x="328" y="6"/>
      <point x="426" y="2"/>
      <point x="500" y="0" type="curve"/>
      <point x="500" y="62" type="line"/>
      <point x="366" y="62"/>
      <point x="344" y="62"/>
      <point x="344" y="152" type="curve" smooth="yes"/>
      <point x="344" y="800" type="line"/>
    </contour>
    <contour>
      <point x="766" y="862" type="line"/>
      <point x="338" y="862" type="line"/>
      <point x="338" y="1088" type="line" smooth="yes"/>
      <point x="338" y="1274"/>
      <point x="490" y="1366"/>
      <point x="638" y="1366" type="curve" smooth="yes"/>
      <point x="656" y="1366"/>
      <point x="710" y="1366"/>
      <point x="766" y="1348" type="curve"/>
      <point x="748" y="1340"/>
      <point x="716" y="1320"/>
      <point x="716" y="1268" type="curve" smooth="yes"/>
      <point x="716" y="1232"/>
      <point x="732" y="1202"/>
      <point x="766" y="1190" type="curve"/>
    </contour>
  </outline>
</glyph>
<glyph name="sfthyphen" format="2">
  <advance width="332"/>
  <outline>
    <contour>
      <point x="552" y="374" type="line"/>
      <point x="552" y="490" type="line"/>
      <point x="22" y="490" type="line"/>
      <point x="22" y="374" type="line"/>
    </contour>
  </outline>
</glyph>
